<svg width="24" height="27" viewBox="0 0 24 27" fill="none" xmlns="http://www.w3.org/2000/svg">
<path fill-rule="evenodd" clip-rule="evenodd" d="M12.952 16.6134L12.9503 16.617C12.5345 17.4484 12.3293 18.3552 12.3293 19.3292V20.5564C12.3293 21.5288 12.5301 22.4343 12.9371 23.265L12.9389 23.2686C13.3597 24.1101 13.9801 24.7882 14.7903 25.2978C15.621 25.8201 16.6158 26.0677 17.7496 26.0677C18.8828 26.0677 19.8746 25.8204 20.6986 25.2971C21.5084 24.7876 22.1284 24.1098 22.549 23.2686C22.9648 22.4372 23.17 21.5304 23.17 20.5564V19.3292C23.17 18.349 22.9653 17.4389 22.5499 16.6074C22.1372 15.7659 21.5244 15.0907 20.7207 14.588C19.8958 14.0644 18.8961 13.8179 17.7496 13.8179C16.6294 13.8179 15.6426 14.0661 14.8131 14.5878C14.0036 15.0969 13.3803 15.7738 12.952 16.6134ZM18.8248 21.971L18.8236 21.9732C18.6662 22.2574 18.3669 22.4541 17.7496 22.4541C17.1471 22.4541 16.8348 22.2578 16.6603 21.9546C16.4178 21.5334 16.2951 21.0707 16.2951 20.5564V19.3292C16.2951 18.8085 16.4209 18.344 16.6688 17.9245L16.6704 17.9216C16.856 17.6028 17.1711 17.4088 17.7496 17.4088C18.391 17.4088 18.6898 17.613 18.8405 17.9016L18.842 17.9044C19.0662 18.3271 19.1814 18.7988 19.1814 19.3292V20.5564C19.1814 21.0819 19.0609 21.55 18.8248 21.971ZM2.96222 11.9692L2.9642 11.9705C3.79482 12.4842 4.79254 12.727 5.93171 12.727C7.05727 12.727 8.04695 12.4836 8.8765 11.9705C9.68782 11.4686 10.3061 10.7973 10.7202 9.96115C11.1359 9.12939 11.3407 8.21903 11.3407 7.23851V6.01126C11.3407 5.03196 11.1402 4.12257 10.7329 3.2913C10.3196 2.44794 9.70202 1.77216 8.89041 1.26952C8.06624 0.746629 7.07091 0.5 5.93171 0.5C4.8122 0.5 3.82591 0.747933 2.99671 1.26892C2.1862 1.77064 1.56243 2.44431 1.13412 3.28415C0.709428 4.11687 0.5 5.0288 0.5 6.01126V7.23851C0.5 8.2125 0.705243 9.11927 1.12096 9.9507C1.54142 10.7916 2.15799 11.4666 2.96222 11.9692ZM6.99554 8.65306L6.99429 8.65531C6.83594 8.94122 6.53877 9.13618 5.93171 9.13618C5.32824 9.13618 5.01625 8.94273 4.84283 8.64889C4.60836 8.22898 4.48857 7.76228 4.48857 7.23851V6.01126C4.48857 5.49694 4.61121 5.02924 4.8553 4.59887C5.03246 4.28652 5.34272 4.09086 5.93171 4.09086C6.56284 4.09086 6.85956 4.29338 7.01123 4.58372L7.01268 4.58645C7.23687 5.00921 7.35213 5.48093 7.35213 6.01126V7.23851C7.35213 7.76401 7.23155 8.23207 6.99554 8.65306ZM18.0321 1.14771L1.34491 25.42H5.39929L22.0865 1.14771H18.0321Z" fill="white"/>
</svg>
