<svg width="37" height="23" viewBox="0 0 37 23" fill="none" xmlns="http://www.w3.org/2000/svg">
<path d="M18.9577 7.55159H15.0297C14.9176 6.90741 14.7111 6.33675 14.41 5.83962C14.1089 5.33548 13.7343 4.90836 13.2862 4.55826C12.838 4.20816 12.3269 3.94559 11.7528 3.77054C11.1856 3.58849 10.5729 3.49747 9.91474 3.49747C8.74542 3.49747 7.70913 3.79155 6.80588 4.37971C5.90263 4.96087 5.19544 5.81511 4.6843 6.94242C4.17315 8.06273 3.91758 9.43161 3.91758 11.0491C3.91758 12.6945 4.17315 14.0809 4.6843 15.2082C5.20244 16.3285 5.90963 17.1758 6.80588 17.7499C7.70913 18.3171 8.74192 18.6006 9.90424 18.6006C10.5484 18.6006 11.1506 18.5166 11.7107 18.3486C12.2779 18.1735 12.7855 17.918 13.2337 17.5819C13.6888 17.2458 14.0704 16.8327 14.3785 16.3425C14.6936 15.8524 14.9106 15.2922 15.0297 14.6621L18.9577 14.6831C18.8107 15.7053 18.4921 16.6646 18.002 17.5609C17.5188 18.4571 16.8852 19.2483 16.101 19.9345C15.3167 20.6137 14.3995 21.1459 13.3492 21.531C12.2989 21.9091 11.1331 22.0981 9.85173 22.0981C7.9612 22.0981 6.27374 21.6605 4.78932 20.7853C3.30491 19.91 2.13559 18.6462 1.28135 16.9937C0.427118 15.3412 0 13.3597 0 11.0491C0 8.73142 0.430619 6.74987 1.29186 5.10441C2.1531 3.45196 3.32592 2.18811 4.81033 1.31286C6.29474 0.437621 7.97521 0 9.85173 0C11.0491 0 12.1624 0.168046 13.1916 0.504139C14.2209 0.840233 15.1382 1.33387 15.9434 1.98505C16.7486 2.62923 17.4103 3.42045 17.9285 4.35871C18.4536 5.28996 18.7967 6.35426 18.9577 7.55159Z" fill="white"/>
<path d="M22.5261 21.804V0.294082H36.516V3.56049H26.4227V9.4001H35.7913V12.6665H26.4227V18.5376H36.6V21.804H22.5261Z" fill="white"/>
</svg>
