<svg width="18" height="21" viewBox="0 0 18 21" fill="none" xmlns="http://www.w3.org/2000/svg">
<path d="M17.51 6.9749H13.8819C13.7784 6.37991 13.5876 5.85283 13.3095 5.39366C13.0314 4.92802 12.6855 4.53352 12.2716 4.21016C11.8576 3.8868 11.3855 3.64428 10.8552 3.4826C10.3314 3.31445 9.7655 3.23038 9.15759 3.23038C8.07756 3.23038 7.12041 3.502 6.28614 4.04525C5.45187 4.58203 4.79868 5.37103 4.32657 6.41225C3.85446 7.447 3.61841 8.71135 3.61841 10.2053C3.61841 11.7251 3.85446 13.0056 4.32657 14.0468C4.80514 15.0816 5.45833 15.8641 6.28614 16.3944C7.12041 16.9182 8.07433 17.1802 9.14788 17.1802C9.74287 17.1802 10.299 17.1026 10.8164 16.9474C11.3403 16.7857 11.8091 16.5496 12.223 16.2392C12.6434 15.9288 12.9959 15.5472 13.2804 15.0945C13.5715 14.6418 13.7719 14.1244 13.8819 13.5424L17.51 13.5618C17.3742 14.506 17.0799 15.392 16.6272 16.2198C16.181 17.0476 15.5957 17.7784 14.8714 18.4122C14.147 19.0395 13.2998 19.531 12.3298 19.8867C11.3597 20.2359 10.2829 20.4105 9.09938 20.4105C7.35323 20.4105 5.79463 20.0063 4.42358 19.1979C3.05253 18.3895 1.9725 17.2222 1.1835 15.6959C0.3945 14.1697 0 12.3395 0 10.2053C0 8.06462 0.397734 6.2344 1.1932 4.7146C1.98867 3.18834 3.07193 2.02101 4.44298 1.2126C5.81403 0.404201 7.36616 0 9.09938 0C10.2053 0 11.2336 0.155213 12.1842 0.465639C13.1349 0.776067 13.9821 1.23201 14.7259 1.83346C15.4696 2.42844 16.0807 3.15924 16.5593 4.02585C17.0444 4.88599 17.3613 5.869 17.51 6.9749Z" fill="white"/>
</svg>
