<svg width="38" height="26" viewBox="0 0 38 26" fill="none" xmlns="http://www.w3.org/2000/svg">
<path d="M9.49124 0.75061C9.87078 0.276179 10.4454 0 11.053 0H35.1682C36.2728 0 37.1682 0.895431 37.1682 2V12.5154V23.0309C37.1682 24.1354 36.2728 25.0309 35.1682 25.0309H10.9674C10.4092 25.0309 9.8764 24.7976 9.49778 24.3874L0.530398 14.6728C-0.140196 13.9463 -0.179349 12.8388 0.438267 12.0668L9.49124 0.75061Z" fill="url(#paint0_linear_2_149)"/>
<path d="M17.8385 6.25771L20.4156 10.5434H20.507L23.0956 6.25771H25.5127L21.907 12.1091L25.5698 17.9605H23.1127L20.507 13.7034H20.4156L17.8099 17.9605H15.3642L19.0613 12.1091L15.4099 6.25771H17.8385Z" fill="white"/>
<defs>
<linearGradient id="paint0_linear_2_149" x1="1.70579" y1="0.960728" x2="18.1843" y2="34.389" gradientUnits="userSpaceOnUse">
<stop stop-color="#FF8A00"/>
<stop offset="1" stop-color="#FF5C00"/>
</linearGradient>
</defs>
</svg>
