<svg width="39" height="34" viewBox="0 0 39 34" fill="none" xmlns="http://www.w3.org/2000/svg">
<path d="M5.97216 10.9735L10.6473 19.4735L15.3979 10.9735H21.174L14.1914 22.4868L21.2947 34H15.5487L10.6473 25.7099L5.79118 34H0L7.058 22.4868L0.180974 10.9735H5.97216Z" fill="white"/>
<path d="M24.5371 18.649V15.6658L31.7912 9.6843C32.3944 9.1846 32.9122 8.72987 33.3445 8.32011C33.7769 7.90035 34.1087 7.49059 34.3399 7.09083C34.5712 6.68107 34.6868 6.23633 34.6868 5.75661C34.6868 4.97707 34.3751 4.36743 33.7517 3.92769C33.1284 3.48795 32.3643 3.26808 31.4594 3.26808C30.4942 3.26808 29.715 3.51293 29.1218 4.00264C28.5387 4.48236 28.2471 5.15197 28.2471 6.01146H24.2506C24.2506 4.15256 24.9292 2.68842 26.2865 1.61905C27.6539 0.539682 29.3983 0 31.5197 0C32.9575 0 34.2092 0.25485 35.2749 0.764551C36.3507 1.26426 37.1852 1.94386 37.7784 2.80335C38.3716 3.66284 38.6682 4.62728 38.6682 5.69665C38.6682 6.55614 38.4923 7.35567 38.1404 8.09524C37.7885 8.82481 37.2405 9.55938 36.4965 10.2989C35.7525 11.0285 34.8024 11.818 33.6462 12.6675L30.5394 15.1261V15.261H39V18.649H24.5371Z" fill="white"/>
</svg>
