<svg width="38" height="37" viewBox="0 0 38 37" fill="none" xmlns="http://www.w3.org/2000/svg">
<path d="M18.7765 1.79283L18.5364 1.9735L10.9594 28.2229L7.44723 18.2957L7.21155 18.1291H0.999998L0.749998 18.3791V20.6547L0.999998 20.9047H5.42613L10.9677 36.5678L11.4435 36.5537L20.6762 4.56836H37.4085L37.6585 4.31836V2.04283L37.4085 1.79283H18.7765Z" fill="white" stroke="white" stroke-width="0.5" stroke-linejoin="bevel"/>
<path d="M26.7549 11.6621L30.3993 17.7227H30.5286L34.1892 11.6621H37.6074L32.5084 19.9368L37.6882 28.2115H34.2134L30.5286 22.1913H30.3993L26.7145 28.2115H23.256L28.4842 19.9368L23.3206 11.6621H26.7549Z" fill="white"/>
<path d="M2.17652 13.4205V11.688L6.77284 7.18216C7.21243 6.73826 7.57876 6.34391 7.87182 5.99914C8.16488 5.65436 8.38468 5.32035 8.53121 4.99713C8.67774 4.6739 8.75101 4.32912 8.75101 3.96279C8.75101 3.54475 8.65619 3.18704 8.46656 2.88967C8.27694 2.58799 8.0162 2.35526 7.68435 2.1915C7.3525 2.02773 6.9754 1.94584 6.55305 1.94584C6.11776 1.94584 5.73635 2.03634 5.40881 2.21735C5.08128 2.39405 4.827 2.64617 4.64599 2.97371C4.46929 3.30125 4.38094 3.69128 4.38094 4.1438H2.09895C2.09895 3.3034 2.29073 2.57291 2.67429 1.9523C3.05786 1.3317 3.5858 0.85117 4.25812 0.510703C4.93474 0.170234 5.71049 0 6.58537 0C7.47317 0 8.25323 0.165924 8.92555 0.497773C9.59787 0.829622 10.1193 1.2843 10.49 1.8618C10.8649 2.4393 11.0524 3.09869 11.0524 3.83996C11.0524 4.33558 10.9576 4.82258 10.768 5.30096C10.5783 5.77934 10.2443 6.30944 9.76595 6.89125C9.29188 7.47306 8.62602 8.1777 7.76839 9.00517L5.48639 11.326V11.4165H11.2528V13.4205H2.17652Z" fill="white"/>
</svg>
