<svg width="40" height="29" viewBox="0 0 40 29" fill="none" xmlns="http://www.w3.org/2000/svg">
<path fill-rule="evenodd" clip-rule="evenodd" d="M40 16H0V12H40V16Z" fill="white"/>
<path d="M22.6888 2.84442C22.6888 4.41535 21.4153 5.68884 19.8444 5.68884C18.2735 5.68884 17 4.41535 17 2.84442C17 1.2735 18.2735 5.72205e-06 19.8444 5.72205e-06C21.4153 5.72205e-06 22.6888 1.2735 22.6888 2.84442Z" fill="white"/>
<path d="M22.6888 25.8444C22.6888 27.4153 21.4153 28.6888 19.8444 28.6888C18.2735 28.6888 17 27.4153 17 25.8444C17 24.2735 18.2735 23 19.8444 23C21.4153 23 22.6888 24.2735 22.6888 25.8444Z" fill="white"/>
</svg>
